<mxfile host="65bd71144e" scale="3" border="0">
    <diagram id="RMzGiMY9Tj7VBh5xY6XL" name="Larger Font">
        <mxGraphModel dx="1976" dy="935" grid="1" gridSize="10" guides="1" tooltips="1" connect="1" arrows="1" fold="1" page="1" pageScale="1" pageWidth="1100" pageHeight="850" math="0" shadow="0">
            <root>
                <mxCell id="0"/>
                <mxCell id="1" parent="0"/>
                <mxCell id="0oAVDyA6tkeGrwED7iam-1" value="payback time" style="rounded=1;whiteSpace=wrap;html=1;" vertex="1" parent="1">
                    <mxGeometry x="1117.5" y="247.5" width="100" height="20" as="geometry"/>
                </mxCell>
                <mxCell id="0oAVDyA6tkeGrwED7iam-2" value="" style="rounded=1;whiteSpace=wrap;html=1;" vertex="1" parent="1">
                    <mxGeometry x="917.5" y="397.5" width="130" height="20" as="geometry"/>
                </mxCell>
                <mxCell id="0oAVDyA6tkeGrwED7iam-3" value="energy results" style="rounded=1;whiteSpace=wrap;html=1;" vertex="1" parent="1">
                    <mxGeometry x="757.5" y="397.5" width="100" height="20" as="geometry"/>
                </mxCell>
                <mxCell id="0oAVDyA6tkeGrwED7iam-4" value="utility $/kWh" style="rounded=1;whiteSpace=wrap;html=1;strokeColor=#FFFFFF;align=center;verticalAlign=middle;fontFamily=Helvetica;fontSize=12;fontColor=#FFFFFF;fillColor=#000000;" vertex="1" parent="1">
                    <mxGeometry x="592.5" y="467.5" width="100" height="20" as="geometry"/>
                </mxCell>
                <mxCell id="0oAVDyA6tkeGrwED7iam-5" style="edgeStyle=orthogonalEdgeStyle;shape=connector;rounded=1;html=1;strokeColor=default;align=center;verticalAlign=middle;fontFamily=Helvetica;fontSize=11;fontColor=default;labelBackgroundColor=default;endArrow=classic;sourcePerimeterSpacing=16;targetPerimeterSpacing=16;jumpStyle=gap;dashed=1;" edge="1" parent="1" source="0oAVDyA6tkeGrwED7iam-37" target="0oAVDyA6tkeGrwED7iam-48">
                    <mxGeometry relative="1" as="geometry">
                        <Array as="points">
                            <mxPoint x="527" y="410"/>
                        </Array>
                    </mxGeometry>
                </mxCell>
                <mxCell id="0oAVDyA6tkeGrwED7iam-6" value="" style="rounded=1;whiteSpace=wrap;html=1;" vertex="1" parent="1">
                    <mxGeometry x="667.5" y="77.5" width="130" height="20" as="geometry"/>
                </mxCell>
                <mxCell id="0oAVDyA6tkeGrwED7iam-7" value="" style="rounded=1;whiteSpace=wrap;html=1;fillColor=#000000;fontColor=#FFFFFF;strokeColor=#FFFFFF;align=center;verticalAlign=middle;fontFamily=Helvetica;fontSize=12;" vertex="1" parent="1">
                    <mxGeometry x="670" y="197.5" width="130" height="20" as="geometry"/>
                </mxCell>
                <mxCell id="0oAVDyA6tkeGrwED7iam-8" value="" style="rounded=1;whiteSpace=wrap;html=1;" vertex="1" parent="1">
                    <mxGeometry x="917.5" y="77.5" width="130" height="20" as="geometry"/>
                </mxCell>
                <mxCell id="0oAVDyA6tkeGrwED7iam-9" value="" style="rounded=1;whiteSpace=wrap;html=1;fillColor=#000000;fontColor=#FFFFFF;strokeColor=#FFFFFF;align=center;verticalAlign=middle;fontFamily=Helvetica;fontSize=12;" vertex="1" parent="1">
                    <mxGeometry x="457.5" y="77.5" width="130" height="20" as="geometry"/>
                </mxCell>
                <mxCell id="0oAVDyA6tkeGrwED7iam-10" value="" style="rounded=1;whiteSpace=wrap;html=1;fillColor=#000000;fontColor=#FFFFFF;strokeColor=#FFFFFF;" vertex="1" parent="1">
                    <mxGeometry x="217.5" y="137.5" width="130" height="20" as="geometry"/>
                </mxCell>
                <mxCell id="0oAVDyA6tkeGrwED7iam-11" value="" style="rounded=1;whiteSpace=wrap;html=1;fillColor=#000000;fontColor=#FFFFFF;strokeColor=#FFFFFF;" vertex="1" parent="1">
                    <mxGeometry x="220" y="140" width="130" height="20" as="geometry"/>
                </mxCell>
                <mxCell id="0oAVDyA6tkeGrwED7iam-12" style="edgeStyle=orthogonalEdgeStyle;shape=connector;rounded=1;html=1;strokeColor=default;align=center;verticalAlign=middle;fontFamily=Helvetica;fontSize=11;fontColor=default;labelBackgroundColor=default;endArrow=classic;sourcePerimeterSpacing=16;targetPerimeterSpacing=16;dashed=1;" edge="1" parent="1" source="0oAVDyA6tkeGrwED7iam-13" target="0oAVDyA6tkeGrwED7iam-48">
                    <mxGeometry relative="1" as="geometry">
                        <Array as="points">
                            <mxPoint x="287" y="410"/>
                        </Array>
                    </mxGeometry>
                </mxCell>
                <mxCell id="0oAVDyA6tkeGrwED7iam-13" value="&lt;b&gt;&lt;font style=&quot;font-size: 14px; color: rgb(255, 255, 255);&quot;&gt;F2F height&lt;/font&gt;&lt;/b&gt;" style="rounded=1;whiteSpace=wrap;html=1;fillColor=#000000;fontColor=#FFFFFF;strokeColor=#FFFFFF;" vertex="1" parent="1">
                    <mxGeometry x="222.5" y="142.5" width="130" height="20" as="geometry"/>
                </mxCell>
                <mxCell id="0oAVDyA6tkeGrwED7iam-14" style="edgeStyle=orthogonalEdgeStyle;shape=connector;rounded=1;html=1;strokeColor=default;align=center;verticalAlign=middle;fontFamily=Helvetica;fontSize=11;fontColor=default;labelBackgroundColor=default;endArrow=classic;sourcePerimeterSpacing=16;targetPerimeterSpacing=16;" edge="1" parent="1" source="0oAVDyA6tkeGrwED7iam-16" target="0oAVDyA6tkeGrwED7iam-29">
                    <mxGeometry relative="1" as="geometry"/>
                </mxCell>
                <mxCell id="0oAVDyA6tkeGrwED7iam-15" style="edgeStyle=orthogonalEdgeStyle;shape=connector;rounded=1;html=1;strokeColor=default;align=center;verticalAlign=middle;fontFamily=Helvetica;fontSize=11;fontColor=default;labelBackgroundColor=default;endArrow=classic;sourcePerimeterSpacing=16;targetPerimeterSpacing=16;" edge="1" parent="1" source="0oAVDyA6tkeGrwED7iam-16" target="0oAVDyA6tkeGrwED7iam-18">
                    <mxGeometry relative="1" as="geometry">
                        <Array as="points">
                            <mxPoint x="200" y="90"/>
                            <mxPoint x="200" y="60"/>
                            <mxPoint x="620" y="60"/>
                            <mxPoint x="620" y="90"/>
                        </Array>
                    </mxGeometry>
                </mxCell>
                <mxCell id="0oAVDyA6tkeGrwED7iam-16" value="&lt;font style=&quot;font-size: 14px;&quot;&gt;&lt;b&gt;roofprint&lt;/b&gt;&lt;/font&gt;" style="rounded=1;whiteSpace=wrap;html=1;" vertex="1" parent="1">
                    <mxGeometry x="40" y="80" width="110" height="20" as="geometry"/>
                </mxCell>
                <mxCell id="0oAVDyA6tkeGrwED7iam-17" style="edgeStyle=orthogonalEdgeStyle;shape=connector;rounded=1;html=1;strokeColor=default;align=center;verticalAlign=middle;fontFamily=Helvetica;fontSize=11;fontColor=default;labelBackgroundColor=default;endArrow=classic;sourcePerimeterSpacing=16;targetPerimeterSpacing=16;" edge="1" parent="1" source="0oAVDyA6tkeGrwED7iam-18" target="0oAVDyA6tkeGrwED7iam-31">
                    <mxGeometry relative="1" as="geometry"/>
                </mxCell>
                <mxCell id="0oAVDyA6tkeGrwED7iam-18" value="" style="rounded=1;whiteSpace=wrap;html=1;" vertex="1" parent="1">
                    <mxGeometry x="670" y="80" width="130" height="20" as="geometry"/>
                </mxCell>
                <mxCell id="0oAVDyA6tkeGrwED7iam-19" style="edgeStyle=orthogonalEdgeStyle;shape=connector;rounded=1;html=1;strokeColor=default;align=center;verticalAlign=middle;fontFamily=Helvetica;fontSize=11;fontColor=default;labelBackgroundColor=default;endArrow=classic;sourcePerimeterSpacing=16;targetPerimeterSpacing=16;" edge="1" parent="1" source="0oAVDyA6tkeGrwED7iam-11" target="0oAVDyA6tkeGrwED7iam-29">
                    <mxGeometry relative="1" as="geometry">
                        <Array as="points">
                            <mxPoint x="390" y="150"/>
                            <mxPoint x="390" y="90"/>
                        </Array>
                    </mxGeometry>
                </mxCell>
                <mxCell id="0oAVDyA6tkeGrwED7iam-20" style="edgeStyle=orthogonalEdgeStyle;shape=connector;rounded=1;html=1;strokeColor=default;align=center;verticalAlign=middle;fontFamily=Helvetica;fontSize=11;fontColor=default;labelBackgroundColor=default;endArrow=classic;sourcePerimeterSpacing=16;targetPerimeterSpacing=16;jumpStyle=gap;" edge="1" parent="1" source="0oAVDyA6tkeGrwED7iam-21" target="0oAVDyA6tkeGrwED7iam-23">
                    <mxGeometry relative="1" as="geometry">
                        <Array as="points">
                            <mxPoint x="210" y="180"/>
                            <mxPoint x="210" y="210"/>
                        </Array>
                    </mxGeometry>
                </mxCell>
                <mxCell id="0oAVDyA6tkeGrwED7iam-21" value="&lt;font style=&quot;font-size: 14px;&quot;&gt;&lt;b&gt;old roof R&lt;/b&gt;&lt;/font&gt;" style="rounded=1;whiteSpace=wrap;html=1;" vertex="1" parent="1">
                    <mxGeometry x="40" y="170" width="110" height="20" as="geometry"/>
                </mxCell>
                <mxCell id="0oAVDyA6tkeGrwED7iam-22" style="edgeStyle=orthogonalEdgeStyle;shape=connector;rounded=1;html=1;strokeColor=default;align=center;verticalAlign=middle;fontFamily=Helvetica;fontSize=11;fontColor=default;labelBackgroundColor=default;endArrow=classic;sourcePerimeterSpacing=16;targetPerimeterSpacing=16;" edge="1" parent="1" source="0oAVDyA6tkeGrwED7iam-23" target="0oAVDyA6tkeGrwED7iam-31">
                    <mxGeometry relative="1" as="geometry">
                        <Array as="points">
                            <mxPoint x="860" y="210"/>
                            <mxPoint x="860" y="90"/>
                        </Array>
                    </mxGeometry>
                </mxCell>
                <mxCell id="0oAVDyA6tkeGrwED7iam-23" value="" style="rounded=1;whiteSpace=wrap;html=1;fillColor=#000000;fontColor=#FFFFFF;strokeColor=#FFFFFF;align=center;verticalAlign=middle;fontFamily=Helvetica;fontSize=12;" vertex="1" parent="1">
                    <mxGeometry x="672.5" y="200" width="130" height="20" as="geometry"/>
                </mxCell>
                <mxCell id="0oAVDyA6tkeGrwED7iam-24" style="edgeStyle=orthogonalEdgeStyle;shape=connector;rounded=1;html=1;strokeColor=default;align=center;verticalAlign=middle;fontFamily=Helvetica;fontSize=11;fontColor=default;labelBackgroundColor=default;endArrow=classic;sourcePerimeterSpacing=16;targetPerimeterSpacing=16;" edge="1" parent="1" source="0oAVDyA6tkeGrwED7iam-25" target="0oAVDyA6tkeGrwED7iam-11">
                    <mxGeometry relative="1" as="geometry"/>
                </mxCell>
                <mxCell id="0oAVDyA6tkeGrwED7iam-25" value="&lt;font style=&quot;font-size: 14px;&quot;&gt;&lt;b&gt;age&lt;/b&gt;&lt;/font&gt;" style="rounded=1;whiteSpace=wrap;html=1;" vertex="1" parent="1">
                    <mxGeometry x="40" y="140" width="110" height="20" as="geometry"/>
                </mxCell>
                <mxCell id="0oAVDyA6tkeGrwED7iam-26" style="edgeStyle=orthogonalEdgeStyle;shape=connector;rounded=1;html=1;strokeColor=default;align=center;verticalAlign=middle;fontFamily=Helvetica;fontSize=11;fontColor=default;labelBackgroundColor=default;endArrow=classic;sourcePerimeterSpacing=16;targetPerimeterSpacing=16;" edge="1" parent="1" source="0oAVDyA6tkeGrwED7iam-27" target="0oAVDyA6tkeGrwED7iam-29">
                    <mxGeometry relative="1" as="geometry">
                        <Array as="points">
                            <mxPoint x="390" y="120"/>
                            <mxPoint x="390" y="90"/>
                        </Array>
                    </mxGeometry>
                </mxCell>
                <mxCell id="0oAVDyA6tkeGrwED7iam-27" value="&lt;font style=&quot;font-size: 14px;&quot;&gt;&lt;b&gt;attic status&lt;/b&gt;&lt;/font&gt;" style="rounded=1;whiteSpace=wrap;html=1;" vertex="1" parent="1">
                    <mxGeometry x="40" y="110" width="110" height="20" as="geometry"/>
                </mxCell>
                <mxCell id="0oAVDyA6tkeGrwED7iam-28" style="edgeStyle=orthogonalEdgeStyle;shape=connector;rounded=1;html=1;strokeColor=default;align=center;verticalAlign=middle;fontFamily=Helvetica;fontSize=11;fontColor=default;labelBackgroundColor=default;endArrow=classic;sourcePerimeterSpacing=16;targetPerimeterSpacing=16;" edge="1" parent="1" source="0oAVDyA6tkeGrwED7iam-29" target="0oAVDyA6tkeGrwED7iam-18">
                    <mxGeometry relative="1" as="geometry"/>
                </mxCell>
                <mxCell id="0oAVDyA6tkeGrwED7iam-29" value="" style="rounded=1;whiteSpace=wrap;html=1;fillColor=#000000;fontColor=#FFFFFF;strokeColor=#FFFFFF;align=center;verticalAlign=middle;fontFamily=Helvetica;fontSize=12;" vertex="1" parent="1">
                    <mxGeometry x="460" y="80" width="130" height="20" as="geometry"/>
                </mxCell>
                <mxCell id="0oAVDyA6tkeGrwED7iam-30" style="edgeStyle=orthogonalEdgeStyle;shape=connector;rounded=1;html=1;strokeColor=default;align=center;verticalAlign=middle;fontFamily=Helvetica;fontSize=11;fontColor=default;labelBackgroundColor=default;endArrow=classic;sourcePerimeterSpacing=16;targetPerimeterSpacing=16;" edge="1" parent="1" source="0oAVDyA6tkeGrwED7iam-31" target="0oAVDyA6tkeGrwED7iam-56">
                    <mxGeometry relative="1" as="geometry">
                        <Array as="points">
                            <mxPoint x="1080" y="90"/>
                            <mxPoint x="1080" y="260"/>
                        </Array>
                    </mxGeometry>
                </mxCell>
                <mxCell id="0oAVDyA6tkeGrwED7iam-31" value="" style="rounded=1;whiteSpace=wrap;html=1;" vertex="1" parent="1">
                    <mxGeometry x="920" y="80" width="130" height="20" as="geometry"/>
                </mxCell>
                <mxCell id="0oAVDyA6tkeGrwED7iam-32" value="&lt;b&gt;&lt;font style=&quot;font-size: 14px;&quot;&gt;deterministic&lt;/font&gt;&lt;/b&gt;" style="rounded=1;whiteSpace=wrap;html=1;" vertex="1" parent="1">
                    <mxGeometry x="777.5" y="10" width="130" height="20" as="geometry"/>
                </mxCell>
                <mxCell id="0oAVDyA6tkeGrwED7iam-33" value="" style="group" vertex="1" connectable="0" parent="1">
                    <mxGeometry x="917.5" y="10" width="135" height="25" as="geometry"/>
                </mxCell>
                <mxCell id="0oAVDyA6tkeGrwED7iam-34" value="" style="rounded=1;whiteSpace=wrap;html=1;fillColor=#000000;fontColor=#FFFFFF;strokeColor=#FFFFFF;" vertex="1" parent="0oAVDyA6tkeGrwED7iam-33">
                    <mxGeometry width="130" height="20" as="geometry"/>
                </mxCell>
                <mxCell id="0oAVDyA6tkeGrwED7iam-35" value="" style="rounded=1;whiteSpace=wrap;html=1;fillColor=#000000;fontColor=#FFFFFF;strokeColor=#FFFFFF;" vertex="1" parent="0oAVDyA6tkeGrwED7iam-33">
                    <mxGeometry x="2.5" y="2.5" width="130" height="20" as="geometry"/>
                </mxCell>
                <mxCell id="0oAVDyA6tkeGrwED7iam-36" value="&lt;b&gt;&lt;font style=&quot;font-size: 14px; color: rgb(255, 255, 255);&quot;&gt;sampled&lt;/font&gt;&lt;/b&gt;" style="rounded=1;whiteSpace=wrap;html=1;fillColor=#000000;fontColor=#FFFFFF;strokeColor=#FFFFFF;" vertex="1" parent="0oAVDyA6tkeGrwED7iam-33">
                    <mxGeometry x="5" y="5" width="130" height="20" as="geometry"/>
                </mxCell>
                <mxCell id="0oAVDyA6tkeGrwED7iam-37" value="&lt;b&gt;&lt;font style=&quot;font-size: 14px; color: rgb(255, 255, 255);&quot;&gt;roof pitch&lt;/font&gt;&lt;/b&gt;" style="rounded=1;whiteSpace=wrap;html=1;fillColor=#000000;fontColor=#FFFFFF;strokeColor=#FFFFFF;align=center;verticalAlign=middle;fontFamily=Helvetica;fontSize=12;" vertex="1" parent="1">
                    <mxGeometry x="462.5" y="82.5" width="130" height="20" as="geometry"/>
                </mxCell>
                <mxCell id="0oAVDyA6tkeGrwED7iam-38" value="&lt;b&gt;&lt;font style=&quot;font-size: 14px;&quot;&gt;retrofit costs&lt;/font&gt;&lt;/b&gt;" style="rounded=1;whiteSpace=wrap;html=1;" vertex="1" parent="1">
                    <mxGeometry x="922.5" y="82.5" width="130" height="20" as="geometry"/>
                </mxCell>
                <mxCell id="0oAVDyA6tkeGrwED7iam-39" style="edgeStyle=orthogonalEdgeStyle;shape=connector;rounded=1;html=1;strokeColor=default;align=center;verticalAlign=middle;fontFamily=Helvetica;fontSize=11;fontColor=default;labelBackgroundColor=default;endArrow=classic;sourcePerimeterSpacing=16;targetPerimeterSpacing=16;jumpStyle=gap;" edge="1" parent="1" source="0oAVDyA6tkeGrwED7iam-40" target="0oAVDyA6tkeGrwED7iam-23">
                    <mxGeometry relative="1" as="geometry">
                        <Array as="points">
                            <mxPoint x="710" y="210"/>
                            <mxPoint x="710" y="210"/>
                        </Array>
                    </mxGeometry>
                </mxCell>
                <mxCell id="0oAVDyA6tkeGrwED7iam-40" value="&lt;font style=&quot;font-size: 14px;&quot;&gt;&lt;b&gt;new roof R&lt;/b&gt;&lt;/font&gt;" style="rounded=1;whiteSpace=wrap;html=1;" vertex="1" parent="1">
                    <mxGeometry x="40" y="200" width="110" height="20" as="geometry"/>
                </mxCell>
                <mxCell id="0oAVDyA6tkeGrwED7iam-41" value="&lt;span&gt;&lt;b style=&quot;&quot;&gt;&lt;font style=&quot;font-size: 14px; color: rgb(255, 255, 255);&quot;&gt;install $/sqft&lt;/font&gt;&lt;/b&gt;&lt;/span&gt;" style="rounded=1;whiteSpace=wrap;html=1;fillColor=#000000;fontColor=#FFFFFF;strokeColor=#FFFFFF;align=center;verticalAlign=middle;fontFamily=Helvetica;fontSize=12;" vertex="1" parent="1">
                    <mxGeometry x="675" y="202.5" width="130" height="20" as="geometry"/>
                </mxCell>
                <mxCell id="0oAVDyA6tkeGrwED7iam-42" value="&lt;font style=&quot;font-size: 14px;&quot;&gt;&lt;b&gt;roof area&lt;/b&gt;&lt;/font&gt;" style="rounded=1;whiteSpace=wrap;html=1;" vertex="1" parent="1">
                    <mxGeometry x="672.5" y="82.5" width="130" height="20" as="geometry"/>
                </mxCell>
                <mxCell id="0oAVDyA6tkeGrwED7iam-43" value="&lt;b&gt;&lt;font style=&quot;font-size: 14px;&quot;&gt;LEDs?&lt;/font&gt;&lt;/b&gt;" style="rounded=1;whiteSpace=wrap;html=1;" vertex="1" parent="1">
                    <mxGeometry x="40" y="230" width="110" height="20" as="geometry"/>
                </mxCell>
                <mxCell id="0oAVDyA6tkeGrwED7iam-44" value="&lt;b&gt;&lt;font style=&quot;font-size: 14px;&quot;&gt;digi-thermostat&lt;/font&gt;&lt;/b&gt;" style="rounded=1;whiteSpace=wrap;html=1;" vertex="1" parent="1">
                    <mxGeometry x="40" y="260" width="110" height="20" as="geometry"/>
                </mxCell>
                <mxCell id="0oAVDyA6tkeGrwED7iam-45" value="..." style="rounded=1;whiteSpace=wrap;html=1;" vertex="1" parent="1">
                    <mxGeometry x="40" y="290" width="110" height="20" as="geometry"/>
                </mxCell>
                <mxCell id="0oAVDyA6tkeGrwED7iam-46" style="edgeStyle=orthogonalEdgeStyle;shape=connector;rounded=1;html=1;strokeColor=default;align=center;verticalAlign=middle;fontFamily=Helvetica;fontSize=11;fontColor=default;labelBackgroundColor=default;endArrow=classic;sourcePerimeterSpacing=16;targetPerimeterSpacing=16;dashed=1;" edge="1" parent="1" source="0oAVDyA6tkeGrwED7iam-47" target="0oAVDyA6tkeGrwED7iam-48">
                    <mxGeometry relative="1" as="geometry">
                        <Array as="points">
                            <mxPoint x="95" y="410"/>
                        </Array>
                    </mxGeometry>
                </mxCell>
                <mxCell id="0oAVDyA6tkeGrwED7iam-47" value="" style="shape=curlyBracket;whiteSpace=wrap;html=1;rounded=1;flipH=1;labelPosition=right;verticalLabelPosition=middle;align=left;verticalAlign=middle;strokeColor=default;fontFamily=Helvetica;fontSize=11;fontColor=default;labelBackgroundColor=default;fillColor=default;rotation=90;" vertex="1" parent="1">
                    <mxGeometry x="85" y="280" width="20" height="120" as="geometry"/>
                </mxCell>
                <mxCell id="0oAVDyA6tkeGrwED7iam-48" value="simulate" style="rhombus;whiteSpace=wrap;html=1;rounded=1;strokeColor=default;align=center;verticalAlign=middle;fontFamily=Helvetica;fontSize=11;fontColor=default;labelBackgroundColor=default;fillColor=default;" vertex="1" parent="1">
                    <mxGeometry x="600" y="370" width="80" height="80" as="geometry"/>
                </mxCell>
                <mxCell id="0oAVDyA6tkeGrwED7iam-49" value="simulate" style="rhombus;whiteSpace=wrap;html=1;rounded=1;strokeColor=default;align=center;verticalAlign=middle;fontFamily=Helvetica;fontSize=11;fontColor=default;labelBackgroundColor=default;fillColor=default;" vertex="1" parent="1">
                    <mxGeometry x="605" y="370" width="80" height="80" as="geometry"/>
                </mxCell>
                <mxCell id="0oAVDyA6tkeGrwED7iam-50" style="edgeStyle=orthogonalEdgeStyle;shape=connector;rounded=1;html=1;strokeColor=default;align=center;verticalAlign=middle;fontFamily=Helvetica;fontSize=11;fontColor=default;labelBackgroundColor=default;endArrow=classic;sourcePerimeterSpacing=16;targetPerimeterSpacing=16;" edge="1" parent="1" source="0oAVDyA6tkeGrwED7iam-51" target="0oAVDyA6tkeGrwED7iam-53">
                    <mxGeometry relative="1" as="geometry"/>
                </mxCell>
                <mxCell id="0oAVDyA6tkeGrwED7iam-51" value="&lt;b&gt;&lt;font style=&quot;font-size: 14px;&quot;&gt;simulate&lt;/font&gt;&lt;/b&gt;" style="rhombus;whiteSpace=wrap;html=1;rounded=1;strokeColor=default;align=center;verticalAlign=middle;fontFamily=Helvetica;fontSize=11;fontColor=default;labelBackgroundColor=default;fillColor=default;" vertex="1" parent="1">
                    <mxGeometry x="610" y="370" width="80" height="80" as="geometry"/>
                </mxCell>
                <mxCell id="0oAVDyA6tkeGrwED7iam-52" style="edgeStyle=orthogonalEdgeStyle;shape=connector;rounded=1;html=1;strokeColor=default;align=center;verticalAlign=middle;fontFamily=Helvetica;fontSize=11;fontColor=default;labelBackgroundColor=default;endArrow=classic;sourcePerimeterSpacing=16;targetPerimeterSpacing=16;" edge="1" parent="1" source="0oAVDyA6tkeGrwED7iam-53" target="0oAVDyA6tkeGrwED7iam-55">
                    <mxGeometry relative="1" as="geometry"/>
                </mxCell>
                <mxCell id="0oAVDyA6tkeGrwED7iam-53" value="" style="rounded=1;whiteSpace=wrap;html=1;" vertex="1" parent="1">
                    <mxGeometry x="760" y="400" width="100" height="20" as="geometry"/>
                </mxCell>
                <mxCell id="0oAVDyA6tkeGrwED7iam-54" style="edgeStyle=orthogonalEdgeStyle;shape=connector;rounded=1;html=1;strokeColor=default;align=center;verticalAlign=middle;fontFamily=Helvetica;fontSize=11;fontColor=default;labelBackgroundColor=default;endArrow=classic;sourcePerimeterSpacing=16;targetPerimeterSpacing=16;" edge="1" parent="1" source="0oAVDyA6tkeGrwED7iam-55" target="0oAVDyA6tkeGrwED7iam-56">
                    <mxGeometry relative="1" as="geometry">
                        <Array as="points">
                            <mxPoint x="1080" y="410"/>
                            <mxPoint x="1080" y="260"/>
                        </Array>
                    </mxGeometry>
                </mxCell>
                <mxCell id="0oAVDyA6tkeGrwED7iam-55" value="" style="rounded=1;whiteSpace=wrap;html=1;" vertex="1" parent="1">
                    <mxGeometry x="920" y="400" width="130" height="20" as="geometry"/>
                </mxCell>
                <mxCell id="0oAVDyA6tkeGrwED7iam-56" value="" style="rounded=1;whiteSpace=wrap;html=1;" vertex="1" parent="1">
                    <mxGeometry x="1120" y="250" width="100" height="20" as="geometry"/>
                </mxCell>
                <mxCell id="0oAVDyA6tkeGrwED7iam-57" style="edgeStyle=orthogonalEdgeStyle;shape=connector;rounded=1;html=1;strokeColor=default;align=center;verticalAlign=middle;fontFamily=Helvetica;fontSize=11;fontColor=default;labelBackgroundColor=default;endArrow=classic;sourcePerimeterSpacing=16;targetPerimeterSpacing=16;" edge="1" parent="1" source="0oAVDyA6tkeGrwED7iam-58" target="0oAVDyA6tkeGrwED7iam-55">
                    <mxGeometry relative="1" as="geometry">
                        <Array as="points">
                            <mxPoint x="885" y="480"/>
                            <mxPoint x="885" y="410"/>
                        </Array>
                    </mxGeometry>
                </mxCell>
                <mxCell id="0oAVDyA6tkeGrwED7iam-58" value="" style="rounded=1;whiteSpace=wrap;html=1;strokeColor=#FFFFFF;align=center;verticalAlign=middle;fontFamily=Helvetica;fontSize=12;fontColor=#FFFFFF;fillColor=#000000;" vertex="1" parent="1">
                    <mxGeometry x="595" y="470" width="100" height="20" as="geometry"/>
                </mxCell>
                <mxCell id="0oAVDyA6tkeGrwED7iam-59" value="&lt;b&gt;&lt;font style=&quot;font-size: 14px; color: rgb(255, 255, 255);&quot;&gt;utility $/kWh&lt;/font&gt;&lt;/b&gt;" style="rounded=1;whiteSpace=wrap;html=1;strokeColor=#FFFFFF;align=center;verticalAlign=middle;fontFamily=Helvetica;fontSize=12;fontColor=#FFFFFF;fillColor=#000000;" vertex="1" parent="1">
                    <mxGeometry x="597.5" y="472.5" width="100" height="20" as="geometry"/>
                </mxCell>
                <mxCell id="0oAVDyA6tkeGrwED7iam-60" value="&lt;font style=&quot;font-size: 14px;&quot;&gt;&lt;b&gt;energy&lt;/b&gt;&lt;/font&gt;" style="rounded=1;whiteSpace=wrap;html=1;" vertex="1" parent="1">
                    <mxGeometry x="762.5" y="402.5" width="100" height="20" as="geometry"/>
                </mxCell>
                <mxCell id="0oAVDyA6tkeGrwED7iam-61" value="&lt;b&gt;&lt;font style=&quot;font-size: 14px;&quot;&gt;cost savings&lt;/font&gt;&lt;/b&gt;" style="rounded=1;whiteSpace=wrap;html=1;" vertex="1" parent="1">
                    <mxGeometry x="922.5" y="402.5" width="130" height="20" as="geometry"/>
                </mxCell>
                <mxCell id="0oAVDyA6tkeGrwED7iam-62" value="&lt;b&gt;&lt;font style=&quot;font-size: 14px;&quot;&gt;payback time&lt;/font&gt;&lt;/b&gt;" style="rounded=1;whiteSpace=wrap;html=1;" vertex="1" parent="1">
                    <mxGeometry x="1122.5" y="252.5" width="100" height="20" as="geometry"/>
                </mxCell>
            </root>
        </mxGraphModel>
    </diagram>
    <diagram id="0oIx9j_aEIYQYy7aG4aq" name="Smaller Font">
        <mxGraphModel dx="1976" dy="935" grid="1" gridSize="10" guides="1" tooltips="1" connect="1" arrows="1" fold="1" page="1" pageScale="1" pageWidth="1100" pageHeight="850" math="0" shadow="0">
            <root>
                <mxCell id="0"/>
                <mxCell id="1" parent="0"/>
                <mxCell id="108" value="payback time" style="rounded=1;whiteSpace=wrap;html=1;" parent="1" vertex="1">
                    <mxGeometry x="1117.5" y="247.5" width="100" height="20" as="geometry"/>
                </mxCell>
                <mxCell id="106" value="" style="rounded=1;whiteSpace=wrap;html=1;" parent="1" vertex="1">
                    <mxGeometry x="917.5" y="397.5" width="130" height="20" as="geometry"/>
                </mxCell>
                <mxCell id="104" value="energy results" style="rounded=1;whiteSpace=wrap;html=1;" parent="1" vertex="1">
                    <mxGeometry x="757.5" y="397.5" width="100" height="20" as="geometry"/>
                </mxCell>
                <mxCell id="102" value="utility $/kWh" style="rounded=1;whiteSpace=wrap;html=1;strokeColor=#FFFFFF;align=center;verticalAlign=middle;fontFamily=Helvetica;fontSize=12;fontColor=#FFFFFF;fillColor=#000000;" parent="1" vertex="1">
                    <mxGeometry x="592.5" y="467.5" width="100" height="20" as="geometry"/>
                </mxCell>
                <mxCell id="85" style="edgeStyle=orthogonalEdgeStyle;shape=connector;rounded=1;html=1;strokeColor=default;align=center;verticalAlign=middle;fontFamily=Helvetica;fontSize=11;fontColor=default;labelBackgroundColor=default;endArrow=classic;sourcePerimeterSpacing=16;targetPerimeterSpacing=16;jumpStyle=gap;dashed=1;" parent="1" source="42" target="78" edge="1">
                    <mxGeometry relative="1" as="geometry">
                        <Array as="points">
                            <mxPoint x="527" y="410"/>
                        </Array>
                    </mxGeometry>
                </mxCell>
                <mxCell id="71" value="" style="rounded=1;whiteSpace=wrap;html=1;" parent="1" vertex="1">
                    <mxGeometry x="667.5" y="77.5" width="130" height="20" as="geometry"/>
                </mxCell>
                <mxCell id="64" value="" style="rounded=1;whiteSpace=wrap;html=1;fillColor=#000000;fontColor=#FFFFFF;strokeColor=#FFFFFF;align=center;verticalAlign=middle;fontFamily=Helvetica;fontSize=12;" parent="1" vertex="1">
                    <mxGeometry x="670" y="197.5" width="130" height="20" as="geometry"/>
                </mxCell>
                <mxCell id="49" value="" style="rounded=1;whiteSpace=wrap;html=1;" parent="1" vertex="1">
                    <mxGeometry x="917.5" y="77.5" width="130" height="20" as="geometry"/>
                </mxCell>
                <mxCell id="43" value="" style="rounded=1;whiteSpace=wrap;html=1;fillColor=#000000;fontColor=#FFFFFF;strokeColor=#FFFFFF;align=center;verticalAlign=middle;fontFamily=Helvetica;fontSize=12;" parent="1" vertex="1">
                    <mxGeometry x="457.5" y="77.5" width="130" height="20" as="geometry"/>
                </mxCell>
                <mxCell id="37" value="" style="rounded=1;whiteSpace=wrap;html=1;fillColor=#000000;fontColor=#FFFFFF;strokeColor=#FFFFFF;" parent="1" vertex="1">
                    <mxGeometry x="217.5" y="137.5" width="130" height="20" as="geometry"/>
                </mxCell>
                <mxCell id="9" value="" style="rounded=1;whiteSpace=wrap;html=1;fillColor=#000000;fontColor=#FFFFFF;strokeColor=#FFFFFF;" parent="1" vertex="1">
                    <mxGeometry x="220" y="140" width="130" height="20" as="geometry"/>
                </mxCell>
                <mxCell id="84" style="edgeStyle=orthogonalEdgeStyle;shape=connector;rounded=1;html=1;strokeColor=default;align=center;verticalAlign=middle;fontFamily=Helvetica;fontSize=11;fontColor=default;labelBackgroundColor=default;endArrow=classic;sourcePerimeterSpacing=16;targetPerimeterSpacing=16;dashed=1;" parent="1" source="36" target="78" edge="1">
                    <mxGeometry relative="1" as="geometry">
                        <Array as="points">
                            <mxPoint x="287" y="410"/>
                        </Array>
                    </mxGeometry>
                </mxCell>
                <mxCell id="36" value="floor-to-floor height" style="rounded=1;whiteSpace=wrap;html=1;fillColor=#000000;fontColor=#FFFFFF;strokeColor=#FFFFFF;" parent="1" vertex="1">
                    <mxGeometry x="222.5" y="142.5" width="130" height="20" as="geometry"/>
                </mxCell>
                <mxCell id="24" style="edgeStyle=orthogonalEdgeStyle;shape=connector;rounded=1;html=1;strokeColor=default;align=center;verticalAlign=middle;fontFamily=Helvetica;fontSize=11;fontColor=default;labelBackgroundColor=default;endArrow=classic;sourcePerimeterSpacing=16;targetPerimeterSpacing=16;" parent="1" source="2" target="22" edge="1">
                    <mxGeometry relative="1" as="geometry"/>
                </mxCell>
                <mxCell id="67" style="edgeStyle=orthogonalEdgeStyle;shape=connector;rounded=1;html=1;strokeColor=default;align=center;verticalAlign=middle;fontFamily=Helvetica;fontSize=11;fontColor=default;labelBackgroundColor=default;endArrow=classic;sourcePerimeterSpacing=16;targetPerimeterSpacing=16;" parent="1" source="2" target="7" edge="1">
                    <mxGeometry relative="1" as="geometry">
                        <Array as="points">
                            <mxPoint x="200" y="90"/>
                            <mxPoint x="200" y="60"/>
                            <mxPoint x="620" y="60"/>
                            <mxPoint x="620" y="90"/>
                        </Array>
                    </mxGeometry>
                </mxCell>
                <mxCell id="2" value="&lt;font style=&quot;font-size: 12px;&quot;&gt;roofprint&lt;/font&gt;" style="rounded=1;whiteSpace=wrap;html=1;" parent="1" vertex="1">
                    <mxGeometry x="40" y="80" width="110" height="20" as="geometry"/>
                </mxCell>
                <mxCell id="33" style="edgeStyle=orthogonalEdgeStyle;shape=connector;rounded=1;html=1;strokeColor=default;align=center;verticalAlign=middle;fontFamily=Helvetica;fontSize=11;fontColor=default;labelBackgroundColor=default;endArrow=classic;sourcePerimeterSpacing=16;targetPerimeterSpacing=16;" parent="1" source="7" target="31" edge="1">
                    <mxGeometry relative="1" as="geometry"/>
                </mxCell>
                <mxCell id="7" value="" style="rounded=1;whiteSpace=wrap;html=1;" parent="1" vertex="1">
                    <mxGeometry x="670" y="80" width="130" height="20" as="geometry"/>
                </mxCell>
                <mxCell id="28" style="edgeStyle=orthogonalEdgeStyle;shape=connector;rounded=1;html=1;strokeColor=default;align=center;verticalAlign=middle;fontFamily=Helvetica;fontSize=11;fontColor=default;labelBackgroundColor=default;endArrow=classic;sourcePerimeterSpacing=16;targetPerimeterSpacing=16;" parent="1" source="9" target="22" edge="1">
                    <mxGeometry relative="1" as="geometry">
                        <Array as="points">
                            <mxPoint x="390" y="150"/>
                            <mxPoint x="390" y="90"/>
                        </Array>
                    </mxGeometry>
                </mxCell>
                <mxCell id="54" style="edgeStyle=orthogonalEdgeStyle;shape=connector;rounded=1;html=1;strokeColor=default;align=center;verticalAlign=middle;fontFamily=Helvetica;fontSize=11;fontColor=default;labelBackgroundColor=default;endArrow=classic;sourcePerimeterSpacing=16;targetPerimeterSpacing=16;jumpStyle=gap;" parent="1" source="10" target="13" edge="1">
                    <mxGeometry relative="1" as="geometry">
                        <Array as="points">
                            <mxPoint x="210" y="180"/>
                            <mxPoint x="210" y="210"/>
                        </Array>
                    </mxGeometry>
                </mxCell>
                <mxCell id="10" value="original insulation" style="rounded=1;whiteSpace=wrap;html=1;" parent="1" vertex="1">
                    <mxGeometry x="40" y="170" width="110" height="20" as="geometry"/>
                </mxCell>
                <mxCell id="32" style="edgeStyle=orthogonalEdgeStyle;shape=connector;rounded=1;html=1;strokeColor=default;align=center;verticalAlign=middle;fontFamily=Helvetica;fontSize=11;fontColor=default;labelBackgroundColor=default;endArrow=classic;sourcePerimeterSpacing=16;targetPerimeterSpacing=16;" parent="1" source="13" target="31" edge="1">
                    <mxGeometry relative="1" as="geometry">
                        <Array as="points">
                            <mxPoint x="860" y="210"/>
                            <mxPoint x="860" y="90"/>
                        </Array>
                    </mxGeometry>
                </mxCell>
                <mxCell id="13" value="" style="rounded=1;whiteSpace=wrap;html=1;fillColor=#000000;fontColor=#FFFFFF;strokeColor=#FFFFFF;align=center;verticalAlign=middle;fontFamily=Helvetica;fontSize=12;" parent="1" vertex="1">
                    <mxGeometry x="672.5" y="200" width="130" height="20" as="geometry"/>
                </mxCell>
                <mxCell id="20" style="edgeStyle=orthogonalEdgeStyle;shape=connector;rounded=1;html=1;strokeColor=default;align=center;verticalAlign=middle;fontFamily=Helvetica;fontSize=11;fontColor=default;labelBackgroundColor=default;endArrow=classic;sourcePerimeterSpacing=16;targetPerimeterSpacing=16;" parent="1" source="15" target="9" edge="1">
                    <mxGeometry relative="1" as="geometry"/>
                </mxCell>
                <mxCell id="15" value="age" style="rounded=1;whiteSpace=wrap;html=1;" parent="1" vertex="1">
                    <mxGeometry x="40" y="140" width="110" height="20" as="geometry"/>
                </mxCell>
                <mxCell id="27" style="edgeStyle=orthogonalEdgeStyle;shape=connector;rounded=1;html=1;strokeColor=default;align=center;verticalAlign=middle;fontFamily=Helvetica;fontSize=11;fontColor=default;labelBackgroundColor=default;endArrow=classic;sourcePerimeterSpacing=16;targetPerimeterSpacing=16;" parent="1" source="16" target="22" edge="1">
                    <mxGeometry relative="1" as="geometry">
                        <Array as="points">
                            <mxPoint x="390" y="120"/>
                            <mxPoint x="390" y="90"/>
                        </Array>
                    </mxGeometry>
                </mxCell>
                <mxCell id="16" value="&lt;font style=&quot;font-size: 12px;&quot;&gt;attic status&lt;/font&gt;" style="rounded=1;whiteSpace=wrap;html=1;" parent="1" vertex="1">
                    <mxGeometry x="40" y="110" width="110" height="20" as="geometry"/>
                </mxCell>
                <mxCell id="29" style="edgeStyle=orthogonalEdgeStyle;shape=connector;rounded=1;html=1;strokeColor=default;align=center;verticalAlign=middle;fontFamily=Helvetica;fontSize=11;fontColor=default;labelBackgroundColor=default;endArrow=classic;sourcePerimeterSpacing=16;targetPerimeterSpacing=16;" parent="1" source="22" target="7" edge="1">
                    <mxGeometry relative="1" as="geometry"/>
                </mxCell>
                <mxCell id="22" value="" style="rounded=1;whiteSpace=wrap;html=1;fillColor=#000000;fontColor=#FFFFFF;strokeColor=#FFFFFF;align=center;verticalAlign=middle;fontFamily=Helvetica;fontSize=12;" parent="1" vertex="1">
                    <mxGeometry x="460" y="80" width="130" height="20" as="geometry"/>
                </mxCell>
                <mxCell id="97" style="edgeStyle=orthogonalEdgeStyle;shape=connector;rounded=1;html=1;strokeColor=default;align=center;verticalAlign=middle;fontFamily=Helvetica;fontSize=11;fontColor=default;labelBackgroundColor=default;endArrow=classic;sourcePerimeterSpacing=16;targetPerimeterSpacing=16;" parent="1" source="31" target="95" edge="1">
                    <mxGeometry relative="1" as="geometry">
                        <Array as="points">
                            <mxPoint x="1080" y="90"/>
                            <mxPoint x="1080" y="260"/>
                        </Array>
                    </mxGeometry>
                </mxCell>
                <mxCell id="31" value="" style="rounded=1;whiteSpace=wrap;html=1;" parent="1" vertex="1">
                    <mxGeometry x="920" y="80" width="130" height="20" as="geometry"/>
                </mxCell>
                <mxCell id="34" value="deterministic" style="rounded=1;whiteSpace=wrap;html=1;" parent="1" vertex="1">
                    <mxGeometry x="777.5" y="10" width="130" height="20" as="geometry"/>
                </mxCell>
                <mxCell id="41" value="" style="group" parent="1" vertex="1" connectable="0">
                    <mxGeometry x="917.5" y="10" width="135" height="25" as="geometry"/>
                </mxCell>
                <mxCell id="38" value="" style="rounded=1;whiteSpace=wrap;html=1;fillColor=#000000;fontColor=#FFFFFF;strokeColor=#FFFFFF;" parent="41" vertex="1">
                    <mxGeometry width="130" height="20" as="geometry"/>
                </mxCell>
                <mxCell id="39" value="" style="rounded=1;whiteSpace=wrap;html=1;fillColor=#000000;fontColor=#FFFFFF;strokeColor=#FFFFFF;" parent="41" vertex="1">
                    <mxGeometry x="2.5" y="2.5" width="130" height="20" as="geometry"/>
                </mxCell>
                <mxCell id="40" value="sampled" style="rounded=1;whiteSpace=wrap;html=1;fillColor=#000000;fontColor=#FFFFFF;strokeColor=#FFFFFF;" parent="41" vertex="1">
                    <mxGeometry x="5" y="5" width="130" height="20" as="geometry"/>
                </mxCell>
                <mxCell id="42" value="roof pitch" style="rounded=1;whiteSpace=wrap;html=1;fillColor=#000000;fontColor=#FFFFFF;strokeColor=#FFFFFF;align=center;verticalAlign=middle;fontFamily=Helvetica;fontSize=12;" parent="1" vertex="1">
                    <mxGeometry x="462.5" y="82.5" width="130" height="20" as="geometry"/>
                </mxCell>
                <mxCell id="48" value="retrofit costs" style="rounded=1;whiteSpace=wrap;html=1;" parent="1" vertex="1">
                    <mxGeometry x="922.5" y="82.5" width="130" height="20" as="geometry"/>
                </mxCell>
                <mxCell id="63" style="edgeStyle=orthogonalEdgeStyle;shape=connector;rounded=1;html=1;strokeColor=default;align=center;verticalAlign=middle;fontFamily=Helvetica;fontSize=11;fontColor=default;labelBackgroundColor=default;endArrow=classic;sourcePerimeterSpacing=16;targetPerimeterSpacing=16;jumpStyle=gap;" parent="1" source="59" target="13" edge="1">
                    <mxGeometry relative="1" as="geometry">
                        <Array as="points">
                            <mxPoint x="710" y="210"/>
                            <mxPoint x="710" y="210"/>
                        </Array>
                    </mxGeometry>
                </mxCell>
                <mxCell id="59" value="new insulation" style="rounded=1;whiteSpace=wrap;html=1;" parent="1" vertex="1">
                    <mxGeometry x="40" y="200" width="110" height="20" as="geometry"/>
                </mxCell>
                <mxCell id="65" value="&lt;span style=&quot;color: rgb(255, 255, 255);&quot;&gt;labor/materials factors&lt;/span&gt;" style="rounded=1;whiteSpace=wrap;html=1;fillColor=#000000;fontColor=#FFFFFF;strokeColor=#FFFFFF;align=center;verticalAlign=middle;fontFamily=Helvetica;fontSize=12;" parent="1" vertex="1">
                    <mxGeometry x="675" y="202.5" width="130" height="20" as="geometry"/>
                </mxCell>
                <mxCell id="70" value="roof area" style="rounded=1;whiteSpace=wrap;html=1;" parent="1" vertex="1">
                    <mxGeometry x="672.5" y="82.5" width="130" height="20" as="geometry"/>
                </mxCell>
                <mxCell id="72" value="has LEDs?" style="rounded=1;whiteSpace=wrap;html=1;" parent="1" vertex="1">
                    <mxGeometry x="40" y="230" width="110" height="20" as="geometry"/>
                </mxCell>
                <mxCell id="73" value="digi-thermostat?" style="rounded=1;whiteSpace=wrap;html=1;" parent="1" vertex="1">
                    <mxGeometry x="40" y="260" width="110" height="20" as="geometry"/>
                </mxCell>
                <mxCell id="74" value="..." style="rounded=1;whiteSpace=wrap;html=1;" parent="1" vertex="1">
                    <mxGeometry x="40" y="290" width="110" height="20" as="geometry"/>
                </mxCell>
                <mxCell id="82" style="edgeStyle=orthogonalEdgeStyle;shape=connector;rounded=1;html=1;strokeColor=default;align=center;verticalAlign=middle;fontFamily=Helvetica;fontSize=11;fontColor=default;labelBackgroundColor=default;endArrow=classic;sourcePerimeterSpacing=16;targetPerimeterSpacing=16;dashed=1;" parent="1" source="77" target="78" edge="1">
                    <mxGeometry relative="1" as="geometry">
                        <Array as="points">
                            <mxPoint x="95" y="410"/>
                        </Array>
                    </mxGeometry>
                </mxCell>
                <mxCell id="77" value="" style="shape=curlyBracket;whiteSpace=wrap;html=1;rounded=1;flipH=1;labelPosition=right;verticalLabelPosition=middle;align=left;verticalAlign=middle;strokeColor=default;fontFamily=Helvetica;fontSize=11;fontColor=default;labelBackgroundColor=default;fillColor=default;rotation=90;" parent="1" vertex="1">
                    <mxGeometry x="85" y="280" width="20" height="120" as="geometry"/>
                </mxCell>
                <mxCell id="78" value="simulate" style="rhombus;whiteSpace=wrap;html=1;rounded=1;strokeColor=default;align=center;verticalAlign=middle;fontFamily=Helvetica;fontSize=11;fontColor=default;labelBackgroundColor=default;fillColor=default;" parent="1" vertex="1">
                    <mxGeometry x="600" y="370" width="80" height="80" as="geometry"/>
                </mxCell>
                <mxCell id="89" value="simulate" style="rhombus;whiteSpace=wrap;html=1;rounded=1;strokeColor=default;align=center;verticalAlign=middle;fontFamily=Helvetica;fontSize=11;fontColor=default;labelBackgroundColor=default;fillColor=default;" parent="1" vertex="1">
                    <mxGeometry x="605" y="370" width="80" height="80" as="geometry"/>
                </mxCell>
                <mxCell id="92" style="edgeStyle=orthogonalEdgeStyle;shape=connector;rounded=1;html=1;strokeColor=default;align=center;verticalAlign=middle;fontFamily=Helvetica;fontSize=11;fontColor=default;labelBackgroundColor=default;endArrow=classic;sourcePerimeterSpacing=16;targetPerimeterSpacing=16;" parent="1" source="88" target="91" edge="1">
                    <mxGeometry relative="1" as="geometry"/>
                </mxCell>
                <mxCell id="88" value="simulate" style="rhombus;whiteSpace=wrap;html=1;rounded=1;strokeColor=default;align=center;verticalAlign=middle;fontFamily=Helvetica;fontSize=11;fontColor=default;labelBackgroundColor=default;fillColor=default;" parent="1" vertex="1">
                    <mxGeometry x="610" y="370" width="80" height="80" as="geometry"/>
                </mxCell>
                <mxCell id="94" style="edgeStyle=orthogonalEdgeStyle;shape=connector;rounded=1;html=1;strokeColor=default;align=center;verticalAlign=middle;fontFamily=Helvetica;fontSize=11;fontColor=default;labelBackgroundColor=default;endArrow=classic;sourcePerimeterSpacing=16;targetPerimeterSpacing=16;" parent="1" source="91" target="93" edge="1">
                    <mxGeometry relative="1" as="geometry"/>
                </mxCell>
                <mxCell id="91" value="" style="rounded=1;whiteSpace=wrap;html=1;" parent="1" vertex="1">
                    <mxGeometry x="760" y="400" width="100" height="20" as="geometry"/>
                </mxCell>
                <mxCell id="96" style="edgeStyle=orthogonalEdgeStyle;shape=connector;rounded=1;html=1;strokeColor=default;align=center;verticalAlign=middle;fontFamily=Helvetica;fontSize=11;fontColor=default;labelBackgroundColor=default;endArrow=classic;sourcePerimeterSpacing=16;targetPerimeterSpacing=16;" parent="1" source="93" target="95" edge="1">
                    <mxGeometry relative="1" as="geometry">
                        <Array as="points">
                            <mxPoint x="1080" y="410"/>
                            <mxPoint x="1080" y="260"/>
                        </Array>
                    </mxGeometry>
                </mxCell>
                <mxCell id="93" value="" style="rounded=1;whiteSpace=wrap;html=1;" parent="1" vertex="1">
                    <mxGeometry x="920" y="400" width="130" height="20" as="geometry"/>
                </mxCell>
                <mxCell id="95" value="" style="rounded=1;whiteSpace=wrap;html=1;" parent="1" vertex="1">
                    <mxGeometry x="1120" y="250" width="100" height="20" as="geometry"/>
                </mxCell>
                <mxCell id="99" style="edgeStyle=orthogonalEdgeStyle;shape=connector;rounded=1;html=1;strokeColor=default;align=center;verticalAlign=middle;fontFamily=Helvetica;fontSize=11;fontColor=default;labelBackgroundColor=default;endArrow=classic;sourcePerimeterSpacing=16;targetPerimeterSpacing=16;" parent="1" source="98" target="93" edge="1">
                    <mxGeometry relative="1" as="geometry">
                        <Array as="points">
                            <mxPoint x="885" y="480"/>
                            <mxPoint x="885" y="410"/>
                        </Array>
                    </mxGeometry>
                </mxCell>
                <mxCell id="98" value="" style="rounded=1;whiteSpace=wrap;html=1;strokeColor=#FFFFFF;align=center;verticalAlign=middle;fontFamily=Helvetica;fontSize=12;fontColor=#FFFFFF;fillColor=#000000;" parent="1" vertex="1">
                    <mxGeometry x="595" y="470" width="100" height="20" as="geometry"/>
                </mxCell>
                <mxCell id="101" value="utility $/kWh" style="rounded=1;whiteSpace=wrap;html=1;strokeColor=#FFFFFF;align=center;verticalAlign=middle;fontFamily=Helvetica;fontSize=12;fontColor=#FFFFFF;fillColor=#000000;" parent="1" vertex="1">
                    <mxGeometry x="597.5" y="472.5" width="100" height="20" as="geometry"/>
                </mxCell>
                <mxCell id="103" value="energy results" style="rounded=1;whiteSpace=wrap;html=1;" parent="1" vertex="1">
                    <mxGeometry x="762.5" y="402.5" width="100" height="20" as="geometry"/>
                </mxCell>
                <mxCell id="105" value="cost savings" style="rounded=1;whiteSpace=wrap;html=1;" parent="1" vertex="1">
                    <mxGeometry x="922.5" y="402.5" width="130" height="20" as="geometry"/>
                </mxCell>
                <mxCell id="107" value="payback time" style="rounded=1;whiteSpace=wrap;html=1;" parent="1" vertex="1">
                    <mxGeometry x="1122.5" y="252.5" width="100" height="20" as="geometry"/>
                </mxCell>
            </root>
        </mxGraphModel>
    </diagram>
</mxfile>
